<?xml version="1.0" encoding="utf-8"?>
<!-- Generator: Adobe Illustrator 18.1.1, SVG Export Plug-In . SVG Version: 6.00 Build 0)  -->
<svg version="1.1" id="Layer_1" xmlns="http://www.w3.org/2000/svg" xmlns:xlink="http://www.w3.org/1999/xlink" x="0px" y="0px"
	 viewBox="236.7 20.2 124 161.5" enable-background="new 236.7 20.2 124 161.5" xml:space="preserve">
<g>
	<g>
		<g>
			<g>
				<path d="M355.7,88.5c-0.8-7.2-3.1-14-6.4-20.5c-6.2-12.3-15-22.5-25.7-31.1c-7.9-6.3-16.4-11.5-26.2-14.5
					c-5.4-1.7-11-2.5-16.7-2.1c-3.9,0.2-7.6,1.1-11.1,2.7c-6.9,3.1-11.5,8.6-14.9,15.1c-4,7.6-6.2,15.7-7.9,24
					c-2.9,14.4-3.7,29.1-3.1,43.8c0.6,13.9,2.4,27.7,6.3,41.1c2.4,8.1,5.6,15.9,10.8,22.6c6.9,9,16.3,12.7,27.3,12
					c11.8-0.7,21.8-5.9,30.9-13.2c6.2-5,11.7-10.8,16.4-17.2c7.5-10.1,13.3-21.2,16.9-33.3c2.4-7.9,3.7-16,3.6-24
					C355.9,92,355.9,90.2,355.7,88.5z M300.5,134.8c-23.5-0.2-41.6-18.9-41.7-41.6c-0.1-22.9,18.1-41.6,41.1-42
					c23.3-0.4,42,17.9,42.4,40.9C342.6,115.9,324,134.7,300.5,134.8z"/>
			</g>
		</g>
		<path d="M274.2,87.6c2.1-1.6,4.2-3.2,6.3-4.8c6.2-4.6,12.3-9.1,18.5-13.7c1.1-0.8,1.8-0.8,2.9,0c7.9,6,15.8,11.8,23.7,17.7
			c0.3,0.2,0.8,0.4,0.9,1.1c-17.5,0-34.9,0-52.3,0C274.3,87.8,274.3,87.8,274.2,87.6z"/>
		<path d="M274.4,98.2c17.4,0,34.8,0,52.2,0c0.1,0.6-0.4,0.7-0.6,0.9c-8.1,6-16.2,12.1-24.3,18.2c-0.8,0.6-1.3,0.7-2.1,0.1
			c-8.2-6.1-16.4-12.2-24.5-18.3C274.7,98.8,274.3,98.7,274.4,98.2z"/>
	</g>
</g>
</svg>
